# xmcd CD database file
# Copyright (C) 1996 Ti Kan
#
# Track frame offsets:
# 	183
# 	16845
# 	36355
#
# Disc length: 699 seconds
#
# Revision: 1
# Processed by: cddbd v1.4b41PL1 Copyright (c) Steve Scherf et al.
# Submitted via: DiscPlay 3.4.1
#
DISCID=1a02b903
DTITLE=Garth Brooks - The Dance/Friends in Low Places
DYEAR=1900
DGENRE=
TTITLE0=The Dance
TTITLE1=Friends in Low Places
TTITLE2=The River (Live)
EXTD=
EXTT0=
EXTT1=
EXTT2=Live Acoustic Version/Previously Unreleased
PLAYORDER=
